# xmcd
#
# Track frame offsets: 
#        150
#        13365
#        27627
#        41710
#        55547
#        65832
#        76322
#        87710
#
# Disc length: 1423 seconds
#
# Revision: 4
# Processed by: cddbd v1.4PL0 Copyright (c) Steve Scherf et al.
# Submitted via: ExactAudioCopy v0.90b3
#
DISCID=6e058d08
DTITLE=George Strait - Pure Strait (Limited Edition)
DYEAR=1900
DGENRE=Country
TTITLE0=Wonderland Of Love
TTITLE1=Just Look At Me
TTITLE2=Love Without End, Amen
TTITLE3=Easy Come, Easy Go
TTITLE4=Rhythm Of The Road
TTITLE5=Too Much Of Too Little
TTITLE6=She Lays It All On The Line
TTITLE7=I Can Still Make Cheyenne
EXTD=
EXTT0=
EXTT1=
EXTT2=
EXTT3=
EXTT4=
EXTT5=
EXTT6=
EXTT7=
PLAYORDER=
